<svg width="93" height="75" viewBox="0 0 93 75" fill="none" xmlns="http://www.w3.org/2000/svg">
<path d="M74.3626 58.7446C78.8626 52.4446 81.1626 45.1446 81.1626 36.9446H75.1626V31.1446H79.5626C78.4626 23.3446 74.9626 16.6446 69.0626 10.8446C67.3626 9.14459 65.5626 7.74459 63.6626 6.44459H69.2626V0.644592C62.0626 0.644592 52.2626 0.944592 45.0626 0.944592C34.8626 0.944592 24.1626 3.74459 17.0626 10.8446C11.0626 16.6446 7.56265 23.3446 6.56265 31.1446H0.962646V36.9446H6.56265C6.56265 45.1446 8.86265 52.3446 13.5626 58.7446H9.66265V63.1446H27.0626V68.9446H16.9626V74.7446H48.9626V68.9446H75.1626V63.1446H66.4626V58.7446H74.3626ZM19.8626 48.5446H14.0626V42.7446H19.8626V48.5446ZM51.0626 44.6446C48.9626 46.7446 46.4626 47.7446 43.5626 47.7446C40.6626 47.7446 38.1626 46.7446 36.0626 44.6446C33.9626 42.5446 32.9626 40.0446 32.9626 37.1446C32.9626 34.2446 33.9626 31.7446 36.0626 29.6446C38.1626 27.5446 40.6626 26.5446 43.5626 26.5446C46.4626 26.5446 48.9626 27.5446 51.0626 29.6446C53.1626 31.7446 54.1626 34.2446 54.1626 37.1446C54.1626 40.0446 53.1626 42.5446 51.0626 44.6446Z" fill="#00FFFF"/>
<path d="M89.7626 43.8446H84.4626V49.1446H89.7626V43.8446Z" fill="#00FFFF"/>
<path d="M76.9626 58.5446C81.4626 52.2446 83.7626 44.9446 83.7626 36.7446H77.7626V30.9446H82.1626C81.0626 23.1446 77.6626 16.4446 71.6626 10.6446C69.9626 8.9446 68.1626 7.5446 66.2626 6.2446H71.8626V0.344604C64.6626 0.344604 52.3626 4.6446 45.1626 4.6446C34.9626 4.6446 26.7626 3.5446 19.5626 10.5446C13.6626 16.3446 10.1626 23.1446 9.16262 30.8446H3.56262V36.6446H9.16262C9.16262 44.8446 11.4626 52.0446 16.1626 58.4446H12.2626V62.8446H29.6626V68.6446H19.5626V74.4446H51.5626V68.6446H77.7626V62.8446H68.9626V58.4446H76.9626V58.5446ZM22.4626 48.3446H16.6626V42.5446H22.4626V48.3446ZM53.6626 44.3446C51.5626 46.4446 49.0626 47.4446 46.1626 47.4446C43.2626 47.4446 40.7626 46.4446 38.6626 44.3446C36.5626 42.2446 35.5626 39.7446 35.5626 36.8446C35.5626 33.9446 36.5626 31.4446 38.6626 29.3446C40.7626 27.2446 43.2626 26.2446 46.1626 26.2446C49.0626 26.2446 51.5626 27.2446 53.6626 29.3446C55.7626 31.4446 56.7626 33.9446 56.7626 36.8446C56.7626 39.7446 55.7626 42.2446 53.6626 44.3446Z" fill="#FF00FF"/>
<path d="M92.3626 43.6446H87.0626V48.9446H92.3626V43.6446Z" fill="#FF00FF"/>
<path d="M75.1626 58.5446C79.8626 52.1446 82.1626 44.8446 82.1626 36.5446H75.9626V31.5446H80.5626C79.4626 23.7446 75.8626 16.8446 69.7626 10.9446C67.9626 9.24462 66.1626 7.74462 64.2626 6.54462H69.9626V0.544617C62.7626 0.544617 51.1626 0.544617 43.9626 0.544617C33.8626 0.544617 25.1626 3.74462 17.9626 10.9446C12.0626 16.8446 8.56265 23.7446 7.56265 31.5446H1.96265V36.5446H7.76265C7.76265 44.8446 10.1626 52.1446 14.9626 58.5446H10.9626V62.5446H27.9626V68.5446H17.9626V74.5446H49.9626V68.5446H75.9626V62.5446H66.9626V58.5446H75.1626ZM20.9626 48.5446H14.9626V42.5446H20.9626V48.5446ZM52.2626 44.3446C50.1626 46.4446 47.6626 47.4446 44.7626 47.4446C41.8626 47.4446 39.3626 46.4446 37.2626 44.3446C35.1626 42.2446 34.1626 39.7446 34.1626 36.8446C34.1626 33.9446 35.1626 31.4446 37.2626 29.3446C39.3626 27.2446 41.8626 26.2446 44.7626 26.2446C47.6626 26.2446 50.1626 27.2446 52.2626 29.3446C54.3626 31.4446 55.3626 33.9446 55.3626 36.8446C55.3626 39.7446 54.2626 42.2446 52.2626 44.3446Z" fill="#E6E6E6"/>
<path d="M90.9626 43.5446H85.9626V48.5446H90.9626V43.5446Z" fill="#E6E6E6"/>
</svg>
