<svg width="33" height="21" viewBox="0 0 33 21" fill="none" xmlns="http://www.w3.org/2000/svg">
<path d="M21.546 1.38912H29.7805V3.41423H21.546V1.38912ZM13.2949 9.40167C15.1152 8.51883 16.0687 7.17573 16.0687 5.10042C16.0687 0.995816 13.0555 0 9.57598 0H0V20.6025H9.84428C13.5343 20.6025 16.9974 18.8033 16.9974 14.6192C16.9974 12.0335 15.7921 10.1213 13.2949 9.40167ZM4.46604 3.51464H8.65554C10.2694 3.51464 11.7182 3.97071 11.7182 5.87029C11.7182 7.61925 10.5914 8.32218 8.994 8.32218H4.46604V3.51464ZM9.2334 17.1046H4.46191V11.431H9.32833C11.2931 11.431 12.5355 12.2636 12.5355 14.3724C12.5355 16.4477 11.0537 17.1046 9.2334 17.1046ZM33 13.3598C33 8.94561 30.4533 5.26778 25.8469 5.26778C21.3685 5.26778 18.3223 8.68619 18.3223 13.1674C18.3223 17.8117 21.2075 21 25.8469 21C29.3595 21 31.6338 19.3975 32.7276 15.9791H29.1655C28.7775 17.2552 27.2008 17.9247 25.9749 17.9247C23.6056 17.9247 22.3674 16.5188 22.3674 14.1297H32.9711C32.9835 13.8828 33 13.6234 33 13.3598ZM22.3674 11.5439C22.4953 9.58159 23.7872 8.35565 25.7189 8.35565C27.7497 8.35565 28.7651 9.56485 28.9426 11.5439H22.3674Z" fill="white"/>
</svg>
