<svg width="30" height="28" viewBox="0 0 30 28" fill="none" xmlns="http://www.w3.org/2000/svg">
<path d="M15 0C10.9223 0 10.4141 0.0183773 8.81829 0.0813852C7.2159 0.154894 6.13202 0.386798 5.17565 0.733342C4.17471 1.08603 3.26822 1.63822 2.51938 2.35142C1.7531 3.0487 1.16114 3.89523 0.785723 4.8306C0.414427 5.72322 0.165958 6.73484 0.0871984 8.2304C0.0150019 9.72071 0 10.1941 0 14C0 17.8059 0.01969 18.2802 0.0871984 19.7696C0.165958 21.2608 0.414427 22.2768 0.785723 23.1694C1.1636 24.1036 1.75523 24.9497 2.51938 25.6486C3.26647 26.3638 4.17346 26.9163 5.17565 27.2667C6.13202 27.6088 7.22059 27.8451 8.81829 27.9186C10.4151 27.986 10.9223 28 15 28C19.0777 28 19.5859 27.9816 21.1817 27.9186C22.7794 27.8451 23.868 27.608 24.8244 27.2667C25.8253 26.914 26.7318 26.3618 27.4806 25.6486C28.2479 24.9521 28.84 24.1053 29.2143 23.1694C29.5809 22.2768 29.834 21.2608 29.9128 19.7696C29.985 18.2793 30 17.8059 30 14C30 10.1941 29.9803 9.71984 29.9128 8.2304C29.834 6.73922 29.5799 5.71796 29.2143 4.8306C28.8364 3.89639 28.2448 3.05034 27.4806 2.35142C26.7343 1.63531 25.8271 1.08267 24.8244 0.733342C23.868 0.386798 22.7794 0.154894 21.1817 0.0813852C19.5849 0.0140018 19.0777 0 15 0ZM15 2.52032C19.0046 2.52032 19.4827 2.53869 21.0654 2.6017C22.5253 2.66558 23.3204 2.89311 23.8483 3.08564C24.5009 3.31047 25.0916 3.66833 25.5773 4.13314C26.0744 4.58455 26.4564 5.13457 26.6949 5.74247C26.9012 6.23515 27.145 6.97725 27.2134 8.33979C27.2809 9.81698 27.3006 10.2642 27.3006 14.0009C27.3006 17.7376 27.2809 18.1848 27.2078 19.662C27.129 21.0245 26.8852 21.7666 26.6799 22.2593C26.3958 22.9165 26.0789 23.3759 25.5557 23.873C25.0684 24.3349 24.4781 24.691 23.8267 24.9161C23.3054 25.1086 22.4991 25.3362 21.0336 25.4C19.4424 25.4631 18.9736 25.4814 14.9587 25.4814C10.9439 25.4814 10.476 25.4631 8.88299 25.3948C7.42312 25.3213 6.6177 25.0938 6.08982 24.9021C5.37724 24.637 4.88874 24.3412 4.36555 23.8529C3.83767 23.3602 3.502 22.8911 3.24322 22.2392C3.03319 21.7526 2.79316 21 2.71534 19.6322C2.6619 18.1646 2.63658 17.7096 2.63658 13.9799C2.63658 10.2519 2.6619 9.79597 2.71534 8.31004C2.79316 6.94224 3.03319 6.1914 3.24322 5.70309C3.502 5.03713 3.83861 4.58207 4.36555 4.08939C4.8878 3.60195 5.37724 3.28691 6.08982 3.04013C6.6177 2.84848 7.40343 2.62095 8.86892 2.55269C10.4601 2.49931 10.9289 2.48006 14.9381 2.48006L15 2.52032ZM15 6.81448C13.9886 6.81413 12.9871 6.9998 12.0527 7.36087C11.1182 7.72194 10.2691 8.25134 9.554 8.91881C8.83885 9.58628 8.27164 10.3787 7.88477 11.2509C7.49791 12.123 7.29898 13.0578 7.29935 14.0017C7.29898 14.9457 7.49791 15.8805 7.88477 16.7526C8.27164 17.6248 8.83885 18.4172 9.554 19.0847C10.2691 19.7522 11.1182 20.2816 12.0527 20.6426C12.9871 21.0037 13.9886 21.1894 15 21.189C16.0114 21.1894 17.0129 21.0037 17.9473 20.6426C18.8818 20.2816 19.7309 19.7522 20.446 19.0847C21.1612 18.4172 21.7284 17.6248 22.1152 16.7526C22.5021 15.8805 22.701 14.9457 22.7006 14.0017C22.701 13.0578 22.5021 12.123 22.1152 11.2509C21.7284 10.3787 21.1612 9.58628 20.446 8.91881C19.7309 8.25134 18.8818 7.72194 17.9473 7.36087C17.0129 6.9998 16.0114 6.81413 15 6.81448ZM15 18.6687C12.2359 18.6687 9.99969 16.5816 9.99969 14.0017C9.99969 11.4219 12.2359 9.33479 15 9.33479C17.7641 9.33479 20.0003 11.4219 20.0003 14.0017C20.0003 16.5816 17.7641 18.6687 15 18.6687ZM24.8112 6.52744C24.8107 6.97345 24.6205 7.40104 24.2825 7.71625C23.9444 8.03147 23.4861 8.20853 23.0082 8.20853C22.7719 8.20853 22.5379 8.16509 22.3196 8.08069C22.1013 7.9963 21.903 7.8726 21.7359 7.71666C21.5688 7.56072 21.4363 7.37559 21.3459 7.17184C21.2554 6.9681 21.2089 6.74972 21.2089 6.52919C21.2089 6.30866 21.2554 6.09028 21.3459 5.88654C21.4363 5.68279 21.5688 5.49766 21.7359 5.34172C21.903 5.18578 22.1013 5.06208 22.3196 4.97769C22.5379 4.89329 22.7719 4.84986 23.0082 4.84986C23.9993 4.84986 24.8112 5.60245 24.8112 6.52744Z" fill="white"/>
</svg>
