<svg width="30" height="29" viewBox="0 0 30 29" fill="none" xmlns="http://www.w3.org/2000/svg">
<path d="M6.81024 29V9.43375H0.379415V29H6.81024ZM3.59566 6.76071C5.8382 6.76071 7.23407 5.25825 7.23407 3.38067C7.19229 1.46076 5.83828 0 3.63821 0C1.43849 0 0 1.46079 0 3.38067C0 5.25833 1.39553 6.76071 3.55368 6.76071H3.59546H3.59566ZM10.3697 29H16.8005V18.0732C16.8005 17.4885 16.8423 16.9043 17.0121 16.4863C17.477 15.3179 18.5351 14.1078 20.3116 14.1078C22.6386 14.1078 23.5696 15.902 23.5696 18.5323V28.9999H30V17.7808C30 11.7708 26.8274 8.97439 22.5963 8.97439C19.1271 8.97439 17.6039 10.9354 16.7577 12.2711H16.8006V9.43334H10.3698C10.4542 11.2693 10.3698 28.9996 10.3698 28.9996L10.3697 29Z" fill="white"/>
</svg>
